<?xml version="1.0" encoding="utf-8"?>
<!-- Generator: Adobe Illustrator 15.0.2, SVG Export Plug-In . SVG Version: 6.00 Build 0)  -->
<!DOCTYPE svg PUBLIC "-//W3C//DTD SVG 1.1//EN" "http://www.w3.org/Graphics/SVG/1.1/DTD/svg11.dtd">
<svg version="1.1" id="Layer_1" xmlns="http://www.w3.org/2000/svg" xmlns:xlink="http://www.w3.org/1999/xlink" x="0px" y="0px"
	 width="75.497px" height="75.497px" viewBox="0 0 75.497 75.497" enable-background="new 0 0 75.497 75.497" xml:space="preserve">
<path fill="#AFAEAF" d="M38.029,4.215c-18.47,0-33.495,15.172-33.495,33.821c0,16.711,12.067,30.621,27.863,33.334
	c1.832,0.314,3.712,0.487,5.632,0.487c1.052,0,2.09-0.056,3.117-0.151c3.974-0.372,7.747-1.446,11.198-3.101
	c2.631-1.261,5.071-2.859,7.271-4.737c7.276-6.209,11.908-15.482,11.908-25.832C71.524,19.387,56.499,4.215,38.029,4.215z
	 M41.146,67.689V52.468l8.882,12.8C47.265,66.518,44.279,67.355,41.146,67.689z M41.146,50.259V28.516h3.465
	c3.667,0,6.54,0.975,8.619,2.923c2.079,1.949,3.119,4.643,3.119,8.078c0,3.408-1.033,6.064-3.098,7.97
	c-2.064,1.906-4.945,2.858-8.641,2.858L41.146,50.259z M57.256,60.622l-3.852-5.296c3.812-1.126,6.741-3.082,8.792-5.869
	c2.05-2.786,3.075-6.187,3.075-10.2c0-5.659-1.819-10.149-5.457-13.471c-3.639-3.319-8.619-4.98-14.943-4.98H32.397v46.5
	C18.819,64.64,8.534,52.532,8.534,38.036c0-16.443,13.231-29.821,29.495-29.821s29.495,13.378,29.495,29.821
	C67.524,47.058,63.536,55.149,57.256,60.622z"/>
</svg>
